<svg xmlns="http://www.w3.org/2000/svg" width="24" height="24" viewBox="0 0 24 24"><rect width="24" height="24" fill="none"/><path d="M4,6A2,2,0,0,1,6,4H8a2,2,0,0,1,2,2V8a2,2,0,0,1-2,2H6A2,2,0,0,1,4,8ZM14,6a2,2,0,0,1,2-2h2a2,2,0,0,1,2,2V8a2,2,0,0,1-2,2H16a2,2,0,0,1-2-2ZM4,16a2,2,0,0,1,2-2H8a2,2,0,0,1,2,2v2a2,2,0,0,1-2,2H6a2,2,0,0,1-2-2Zm10,0a2,2,0,0,1,2-2h2a2,2,0,0,1,2,2v2a2,2,0,0,1-2,2H16a2,2,0,0,1-2-2Z" transform="translate(0.5 -0.5)" fill="none" stroke="#434656" stroke-linecap="round" stroke-linejoin="round" stroke-width="2"/></svg>