<svg xmlns="http://www.w3.org/2000/svg" viewBox="0 0 274.13 89.06"><g id="Layer_2" data-name="Layer 2"><g id="Layer_1-2" data-name="Layer 1"><path d="M9.78,87.83c-3.22,0-5.66-.84-7.3-2.53S0,81.19,0,78.06v-68C0,7,.82,4.55,2.48,2.86S6.52.32,9.65.32q9.54,0,9.54,9.78V71.62H52.36q8.28,0,8.29,8t-8.29,8.17Z" style="fill:#4156a6"/><path d="M110.81,89.06q-4.71,0-7.24-2.6T101,78.91V10.71q0-10,10-10h42.33q7.55,0,7.55,7.43t-7.55,7.55H120.22V37h30.45q7.67,0,7.67,7.43t-7.67,7.55H120.22v27Q120.22,89.07,110.81,89.06Z" style="fill:#4156a6"/><path d="M59.59,63.37a35.38,35.38,0,0,1-17-3.9,27.43,27.43,0,0,1-11.2-11,34.25,34.25,0,0,1-4-16.9,34,34,0,0,1,4-16.77A27,27,0,0,1,42.57,3.84,35.83,35.83,0,0,1,59.59,0a35.83,35.83,0,0,1,17,3.84,27.49,27.49,0,0,1,11.26,11,33.57,33.57,0,0,1,4,16.77,33.84,33.84,0,0,1-4,16.9,27.88,27.88,0,0,1-11.26,11A35.38,35.38,0,0,1,59.59,63.37Zm0-14a12.28,12.28,0,0,0,9.71-4.34q3.78-4.32,3.78-13.49T69.3,18.26A12.34,12.34,0,0,0,59.59,14a12.2,12.2,0,0,0-9.66,4.27q-3.7,4.26-3.71,13.3t3.71,13.49A12.14,12.14,0,0,0,59.59,49.39Z" style="fill:#c32a40"/><path d="M196.33,63.37a35.38,35.38,0,0,1-17-3.9,27.43,27.43,0,0,1-11.2-11,34.25,34.25,0,0,1-4-16.9,34,34,0,0,1,4-16.77,27,27,0,0,1,11.2-10.95,39.64,39.64,0,0,1,34,0,27.43,27.43,0,0,1,11.26,11,33.57,33.57,0,0,1,4,16.77,33.84,33.84,0,0,1-4,16.9,27.82,27.82,0,0,1-11.26,11A35.38,35.38,0,0,1,196.33,63.37Zm0-14a12.31,12.31,0,0,0,9.72-4.34q3.76-4.32,3.77-13.49t-3.77-13.3A12.38,12.38,0,0,0,196.33,14a12.17,12.17,0,0,0-9.65,4.27Q183,22.52,183,31.56t3.72,13.49A12.1,12.1,0,0,0,196.33,49.39Z" style="fill:#c32a40"/><text transform="translate(226.47 75.64)" style="font-size:33.11561965942383px;fill:#4156a6;font-family:Nunito-ExtraBold, Nunito;font-weight:800">PH</text></g></g></svg>